# xmcd CD database file
#
# Track frame offsets:
#	150
#	19467
#	35690
#	53267
#
# Disc length: 964 seconds
#
# Revision: 1
# Processed by: cddbd v1.5.1PL2 Copyright (c) Steve Scherf et al.
# Submitted via: CDex 1.51
#
DISCID=2a03c204
DTITLE=Little Non - サクラサク
DYEAR=2006
DGENRE=Anime
TTITLE0=サクラサク
TTITLE1=少女椿
TTITLE2=百合色
TTITLE3=サクラサク (inst)
EXTD=YEAR: 2006
EXTT0=
EXTT1=
EXTT2=
EXTT3=
PLAYORDER=
